<svg width="18" height="18" viewBox="0 0 18 18" fill="none" xmlns="http://www.w3.org/2000/svg">
<path fill-rule="evenodd" clip-rule="evenodd" d="M15.3209 6.30085C15.0418 4.83506 14.3353 3.43403 13.2025 2.29987C10.1954 -0.711042 5.31956 -0.711042 2.31243 2.29987C1.39509 3.21837 0.584949 4.57797 0.230644 6.08743C-0.125807 7.60602 -0.0269811 9.31183 0.935779 10.863C0.985074 10.9424 1.01556 10.9916 1.0371 11.0285C1.04703 11.0454 1.05226 11.0551 1.05446 11.0593C1.05647 11.0646 1.05771 11.0683 1.05843 11.0706C1.05842 11.0733 1.05831 11.078 1.05784 11.0851C1.05725 11.0884 1.05587 11.0956 1.05307 11.108C1.04595 11.1395 1.03511 11.1817 1.01582 11.2562L1.01022 11.2778C0.899645 11.7049 0.808762 12.056 0.755341 12.3397C0.701566 12.6252 0.670454 12.9134 0.727654 13.1948C0.890756 13.9972 1.51727 14.625 2.31974 14.7885C2.60125 14.8459 2.88944 14.8147 3.17469 14.7608C3.45806 14.7073 3.80875 14.6163 4.2353 14.5056L4.25693 14.5C4.33136 14.4807 4.37347 14.4698 4.40496 14.4627C4.41721 14.4599 4.42436 14.4585 4.42767 14.4579C4.4342 14.4575 4.43866 14.4573 4.44145 14.4573C4.44375 14.458 4.44722 14.4592 4.45208 14.4611C4.45629 14.4633 4.46606 14.4685 4.48318 14.4785C4.52026 14.5002 4.56988 14.5308 4.64973 14.5802C5.16633 14.8999 5.704 15.1233 6.24868 15.2647C6.45074 15.5462 6.67797 15.8148 6.93022 16.0674C7.67346 16.8116 8.80867 17.487 10.0732 17.7898C11.3464 18.0948 12.7971 18.0309 14.1098 17.2187C14.1734 17.1793 14.2123 17.1553 14.241 17.1385C14.2639 17.1439 14.2954 17.152 14.3475 17.1656L14.3685 17.171C14.7171 17.2615 15.009 17.3372 15.246 17.382C15.4849 17.4271 15.7394 17.4561 15.9926 17.4045C16.6969 17.261 17.2466 16.7101 17.3898 16.0059C17.4412 15.7528 17.4123 15.4985 17.3673 15.2593C17.3226 15.022 17.2469 14.7298 17.1566 14.3809L17.1511 14.3598C17.1375 14.307 17.1294 14.2754 17.1239 14.2524C17.1407 14.2239 17.1646 14.1853 17.204 14.1218C18.0154 12.8145 18.0971 11.3784 17.7984 10.1056C17.5018 8.84196 16.8241 7.70418 16.0546 6.93372C15.8228 6.70158 15.5774 6.49058 15.3209 6.30085ZM12.3181 3.1832C9.79924 0.661182 5.71571 0.661182 3.19687 3.1832C2.43855 3.94247 1.7471 5.09695 1.44757 6.37307C1.15018 7.64004 1.24526 8.99128 1.99784 10.2038C2.00496 10.2153 2.01218 10.2269 2.01946 10.2385C2.09121 10.3537 2.16848 10.4778 2.21328 10.5904C2.29276 10.7902 2.32027 10.971 2.30385 11.1854C2.29461 11.3059 2.26223 11.4301 2.23379 11.5392C2.23113 11.5494 2.2285 11.5595 2.22593 11.5694C2.10838 12.0235 2.02844 12.3337 1.98374 12.571C1.9385 12.8112 1.94457 12.9063 1.95261 12.9458C2.01596 13.2575 2.25906 13.5005 2.56932 13.5637C2.60837 13.5716 2.70293 13.5778 2.94277 13.5325C3.17971 13.4878 3.48938 13.4078 3.94294 13.29C3.95287 13.2875 3.96295 13.2848 3.97316 13.2822C4.08201 13.2537 4.20611 13.2213 4.32627 13.212C4.54047 13.1954 4.72014 13.2226 4.91983 13.3018C5.03221 13.3463 5.15667 13.4236 5.2724 13.4955C5.28418 13.5028 5.29587 13.5101 5.30745 13.5172C5.33023 13.5313 5.35305 13.5452 5.37592 13.5588C4.62238 11.3089 5.14004 8.72616 6.93022 6.93372C8.78551 5.0761 11.489 4.58659 13.7918 5.46432C13.4782 4.63276 12.9871 3.85307 12.3181 3.1832ZM14.3988 7.17936C12.3762 5.81154 9.60485 6.0246 7.81466 7.81705C6.03919 9.59476 5.81474 12.3394 7.14381 14.3607C7.33494 14.6514 7.55846 14.9275 7.81466 15.1841C8.395 15.7651 9.325 16.3253 10.3643 16.5742C11.3949 16.8211 12.4867 16.7531 13.4521 16.1557C13.4616 16.1498 13.4715 16.1437 13.4815 16.1374C13.5745 16.0796 13.6862 16.0102 13.7887 15.9695C13.9687 15.8981 14.1335 15.8732 14.3266 15.8881C14.4361 15.8966 14.5483 15.926 14.636 15.949C14.6448 15.9513 14.6533 15.9535 14.6615 15.9556C15.0365 16.053 15.2873 16.1177 15.4779 16.1537C15.6714 16.1902 15.7322 16.1819 15.743 16.1797C15.9551 16.1365 16.1214 15.9703 16.1648 15.7569C16.1671 15.7457 16.1754 15.6845 16.1389 15.4907C16.1029 15.2997 16.0382 15.0486 15.941 14.6731C15.9389 14.6648 15.9367 14.6563 15.9344 14.6476C15.9114 14.5597 15.8821 14.4474 15.8737 14.3376C15.8589 14.1443 15.8841 13.9785 15.9557 13.7984C15.9966 13.6957 16.066 13.5844 16.1237 13.4919C16.13 13.4819 16.136 13.4721 16.1419 13.4626C16.7432 12.494 16.8211 11.4125 16.5814 10.3913C16.3396 9.36094 15.7806 8.42828 15.1702 7.81705C14.929 7.57554 14.6704 7.36306 14.3988 7.17936Z" fill="#2D264B"/>
<path d="M9.83255 11.5C9.83255 11.9603 9.45946 12.3334 8.99922 12.3334C8.53898 12.3334 8.16589 11.9603 8.16589 11.5C8.16589 11.0398 8.53898 10.6667 8.99922 10.6667C9.45946 10.6667 9.83255 11.0398 9.83255 11.5Z" fill="#2D264B"/>
<path d="M12.3326 11.5C12.3326 11.9603 11.9595 12.3334 11.4992 12.3334C11.039 12.3334 10.6659 11.9603 10.6659 11.5C10.6659 11.0398 11.039 10.6667 11.4992 10.6667C11.9595 10.6667 12.3326 11.0398 12.3326 11.5Z" fill="#2D264B"/>
<path d="M14.8326 11.5C14.8326 11.9603 14.4595 12.3334 13.9992 12.3334C13.539 12.3334 13.1659 11.9603 13.1659 11.5C13.1659 11.0398 13.539 10.6667 13.9992 10.6667C14.4595 10.6667 14.8326 11.0398 14.8326 11.5Z" fill="#2D264B"/>
</svg>
